<svg width="24" height="24" viewBox="0 0 24 24" fill="none" xmlns="http://www.w3.org/2000/svg">
    <path fill-rule="evenodd" clip-rule="evenodd"
        d="M19.9141 4.99999C20.3047 5.39051 20.3047 6.02367 19.9141 6.4142L13.8712 12.4571L19.9141 18.5C20.3047 18.8905 20.3047 19.5237 19.9141 19.9142C19.5236 20.3047 18.8904 20.3047 18.4999 19.9142L12.457 13.8713L6.41414 19.9142C6.02362 20.3047 5.39045 20.3047 4.99993 19.9142C4.6094 19.5237 4.6094 18.8905 4.99993 18.5L11.0428 12.4571L4.99992 6.4142C4.6094 6.02368 4.6094 5.39051 4.99992 4.99999C5.39045 4.60946 6.02361 4.60946 6.41414 4.99999L12.457 11.0429L18.4999 4.99999C18.8905 4.60946 19.5236 4.60946 19.9141 4.99999Z"
        fill="#a4a2b7" />
</svg>